<svg width="80" height="80" viewBox="0 0 80 80" version="1.1" xmlns="http://www.w3.org/2000/svg" xmlns:xlink="http://www.w3.org/1999/xlink">
<title>Slice 6</title>
<desc>Created using Figma</desc>
<g id="Canvas" transform="translate(-7066 -5805)">
<g id="download">
<g id="Group">
<g id="Vector">
<use xlink:href="#path0_fill" transform="translate(7066 5805)" fill="#CC00C2"/>
</g>
</g>
</g>
</g>
<defs>
<path id="path0_fill" d="M 40 2.61719e-06C 17.9325 2.61719e-06 0 17.9325 0 40C 0 62.0675 17.9325 80 40 80C 62.0675 80 80 62.0675 80 40C 80 17.9325 62.0675 2.61719e-06 40 2.61719e-06L 40 2.61719e-06ZM 40 4C 59.9057 4 76 20.0943 76 40C 76 59.9057 59.9057 76 40 76C 20.0943 76 4 59.9057 4 40C 4 20.0943 20.0943 4 40 4L 40 4ZM 29.3438 18.9688C 28.2259 18.9927 27.1508 19.2908 26.2188 19.8438C 24.3547 20.9496 23.0541 23.0408 23 25.4688L 23 54.4062C 23.054 56.834 24.3568 58.9504 26.2188 60.0625C 28.0807 61.1746 30.5415 61.2885 32.6875 60.1245C 41.0294 55.3008 49.3768 50.4584 57.7188 45.6245C 59.657 44.4987 61 42.3593 61 39.937C 61 37.5147 59.657 35.4064 57.7188 34.2808C 49.4155 29.3823 40.9612 24.7179 32.6875 19.7808C 31.5484 19.1633 30.382 18.9561 29.3438 18.9683L 29.3438 18.9688ZM 29.5 22.9375C 29.9055 22.9455 30.3078 23.0704 30.7188 23.2813C 39.0468 28.0927 47.388 32.9269 55.7188 37.75C 56.5017 38.2047 57 38.9664 57 39.9375C 57 40.9086 56.5018 41.7014 55.7188 42.1562C 47.3712 46.9648 39.075 51.8635 30.7188 56.6562C 29.7867 57.1348 28.9402 57.0371 28.25 56.6252C 27.55 56.2071 27.035 55.4664 27 54.3752L 27 25.5315C 27.035 24.4402 27.5518 23.6957 28.25 23.2815C 28.6861 23.037 29.0945 22.9293 29.5 22.9377L 29.5 22.9375Z"/>
</defs>
</svg>
